<svg width="168" height="41" viewBox="0 0 168 41" fill="none" xmlns="http://www.w3.org/2000/svg">
<g opacity="0.6">
<g clip-path="url(#clip0)">
<path d="M15.7164 16.0732L13.7852 27.4064H16.8738L18.8066 16.0732H15.7164Z" fill="white"/>
<path d="M11.1928 16.0854L8.16765 23.8142L7.84512 22.6473C7.24852 21.2411 5.55482 19.2217 3.56641 17.9491L6.33256 27.4002L9.60078 27.3947L14.465 16.083L11.1928 16.0854Z" fill="white"/>
<path d="M6.67419 16.8963C6.49465 16.206 5.97431 16.0002 5.32845 15.9756H0.539721L0.5 16.2012C4.2266 17.1052 6.69246 19.2835 7.71566 21.9027L6.67419 16.8963Z" fill="white"/>
<path d="M25.0647 18.2453C26.0752 18.2294 26.8076 18.4502 27.3764 18.679L27.6553 18.8101L28.0731 16.3538C27.4614 16.1242 26.5026 15.8779 25.3062 15.8779C22.254 15.8779 20.1028 17.4151 20.0861 19.618C20.0662 21.2458 21.6185 22.1546 22.7911 22.6972C23.9946 23.2533 24.3982 23.6068 24.3926 24.1033C24.3831 24.862 23.4329 25.2099 22.5456 25.2099C21.3087 25.2099 20.6517 25.0391 19.6372 24.6165L19.2392 24.4354L18.8047 26.9719C19.5276 27.2889 20.8614 27.5614 22.2461 27.5757C25.4929 27.5757 27.6028 26.0568 27.6251 23.7029C27.6386 22.4152 26.8148 21.4325 25.0297 20.6261C23.9493 20.1002 23.2884 19.7507 23.2947 19.22C23.2947 18.7489 23.8556 18.2453 25.0647 18.2453Z" fill="white"/>
<path d="M36.0009 16.0859H33.6145C32.8733 16.0859 32.322 16.2877 31.9963 17.0265L27.4102 27.4127H30.6537C30.6537 27.4127 31.1828 26.0161 31.3028 25.7103C31.6579 25.7103 34.8093 25.715 35.2582 25.715C35.3503 26.1106 35.6347 27.4127 35.6347 27.4127H38.5002L36.0009 16.0859ZM32.1917 23.3906C32.4459 22.7399 33.4223 20.2232 33.4223 20.2232C33.4056 20.2542 33.6741 19.5679 33.8338 19.1413L34.0419 20.1184C34.0419 20.1184 34.6338 22.8242 34.7577 23.3906H32.1917Z" fill="white"/>
</g>
<g clip-path="url(#clip1)">
<path d="M67.7464 14.46C66.3614 14.46 65.0727 14.8792 64 15.597C62.9272 14.8792 61.6386 14.46 60.2536 14.46C56.5297 14.46 53.5 17.4893 53.5 21.213C53.5 24.9366 56.5297 27.966 60.2536 27.966C61.6386 27.966 62.9273 27.5467 64 26.8289C65.0728 27.5467 66.3614 27.966 67.7464 27.966C71.4703 27.966 74.5 24.9366 74.5 21.213C74.5 17.4893 71.4703 14.46 67.7464 14.46V14.46ZM67.7464 26.7355C65.7353 26.7355 63.972 25.655 63.0062 24.0443H63.7159C64.0558 24.0443 64.3312 23.7689 64.3312 23.4291C64.3312 23.0894 64.0558 22.8139 63.7159 22.8139H62.4602C62.3842 22.5636 62.3254 22.3061 62.2854 22.0422H64.7005C65.0401 22.0422 65.3157 21.7668 65.3157 21.427C65.3157 21.0873 65.0401 20.8118 64.7005 20.8118H62.2378C62.2567 20.5492 62.2943 20.2915 62.349 20.0403H63.7159C64.0558 20.0403 64.3312 19.7648 64.3312 19.4251C64.3312 19.0853 64.0558 18.8099 63.7159 18.8099H62.7742C63.6695 16.9653 65.5618 15.6904 67.7464 15.6904C70.7918 15.6904 73.2695 18.1679 73.2695 21.213C73.2695 24.258 70.7918 26.7355 67.7464 26.7355Z" fill="white"/>
</g>
<path d="M147.5 20.3559C147.5 21.8534 148.418 23.1095 149.722 23.5926V17.1191C148.418 17.6022 147.5 18.8583 147.5 20.3559Z" fill="white"/>
<path d="M152.188 17.1191V23.5926C153.492 23.1095 154.41 21.8051 154.41 20.3559C154.41 18.8583 153.492 17.6022 152.188 17.1191Z" fill="white"/>
<path d="M152.188 23.5922C153.492 23.1091 154.41 21.8047 154.41 20.3555L152.188 23.5922Z" fill="white"/>
<path d="M153.782 14.3652H150.98C147.647 14.3652 144.941 16.829 144.941 20.4039C144.941 23.6889 147.647 26.3459 150.98 26.3459H153.782C157.067 26.3459 160.062 23.6889 160.062 20.4039C160.014 16.829 157.019 14.3652 153.782 14.3652ZM150.98 25.8145C147.937 25.8145 145.521 23.3507 145.521 20.3556C145.521 17.3121 147.985 14.8483 150.98 14.8483C154.024 14.8483 156.487 17.3121 156.487 20.3556C156.439 23.3991 153.975 25.8145 150.98 25.8145Z" fill="white"/>
<path d="M158.951 19.4377C158.951 17.8918 158.323 16.4908 157.26 15.3797C156.246 14.7517 155.038 14.3652 153.782 14.3652H150.98C147.647 14.3652 144.941 16.829 144.941 20.4039C144.941 21.9015 145.521 23.2541 146.439 24.3169C147.405 24.9933 148.565 25.4763 149.821 25.6696C147.357 25.1382 145.521 22.9643 145.521 20.3073C145.521 17.2638 147.985 14.8 150.98 14.8C154.024 14.8 156.487 17.2638 156.487 20.3073C156.487 23.3024 154.12 25.7179 151.125 25.7662C151.222 25.7662 151.27 25.7662 151.367 25.7662C155.521 25.8145 158.951 22.9643 158.951 19.4377Z" fill="white"/>
<path d="M150.929 14.3652C147.596 14.3652 144.891 16.829 144.891 20.4039C144.891 21.8532 145.422 23.2058 146.34 24.2203C146.388 24.2686 146.437 24.3169 146.485 24.3652C147.451 25.0416 148.562 25.4763 149.818 25.7179C147.354 25.1865 145.519 23.0126 145.519 20.3556C145.519 17.3121 147.982 14.8483 150.978 14.8483C154.021 14.8483 156.485 17.3121 156.485 20.3556C156.485 23.3507 154.118 25.7662 151.123 25.8145C151.219 25.8145 151.267 25.8145 151.364 25.8145C151.606 25.8145 151.847 25.8145 152.089 25.7662C155.277 24.9933 157.306 21.7565 156.726 18.3266C156.437 16.7324 155.664 15.3797 154.552 14.4135C154.311 14.3652 154.069 14.3652 153.828 14.3652H150.929Z" fill="white"/>
<g clip-path="url(#clip2)">
<path d="M97.1914 19.0828C96.808 18.9945 96.4264 19.1745 96.2531 19.5212L95.4197 21.1879C95.2913 21.4462 95.3047 21.7529 95.4547 21.9979C95.6097 22.2446 95.8781 22.3945 96.1664 22.3945H96.9997C97.4597 22.3945 97.8331 22.0212 97.8331 21.5612V19.8945C97.8331 19.5078 97.5681 19.1712 97.1914 19.0828Z" fill="white"/>
<path d="M120.088 20.1376L118.423 18.4725C118.322 18.3709 118.188 18.3092 118.045 18.2692C118.01 18.2592 117.978 18.2525 117.942 18.2475C117.905 18.2442 117.872 18.2275 117.833 18.2275H115.333C114.873 18.2275 114.5 18.6009 114.5 19.0609C114.5 19.5209 114.873 19.8943 115.333 19.8943H117V21.5609H115.333C114.873 21.5609 114.5 21.9343 114.5 22.3943C114.5 22.8543 114.873 23.2277 115.333 23.2277H117.833C117.943 23.2277 118.052 23.206 118.152 23.1627C118.253 23.121 118.347 23.0593 118.423 22.981L120.088 21.3159C120.413 20.9909 120.413 20.4626 120.088 20.1376Z" fill="white"/>
<path d="M129.306 25.1947L125.583 20.728L129.305 16.2613C129.513 16.013 129.556 15.6663 129.42 15.3745C129.283 15.0812 128.99 14.8945 128.666 14.8945H124.5C124.278 14.8945 124.066 14.9829 123.91 15.1379L122 17.0496L120.09 15.1395C119.933 14.9829 119.721 14.8945 119.5 14.8945H108.631C108.338 14.8945 108.066 15.0479 107.916 15.2995L106.131 18.2763L104.346 15.2995C104.196 15.0479 103.925 14.8945 103.631 14.8945H95.3327C95.0177 14.8945 94.7294 15.0729 94.5877 15.3545L89.5877 25.3547C89.4593 25.613 89.4727 25.9197 89.6227 26.1647C89.776 26.4114 90.0443 26.5613 90.3327 26.5613H94.4994C94.8144 26.5613 95.1027 26.3829 95.2444 26.1013L95.846 24.8946H96.166V25.728C96.166 26.188 96.5394 26.5614 96.9994 26.5614H103.666C104.069 26.5614 104.406 26.2747 104.483 25.893L104.588 26.1014C104.729 26.383 105.016 26.5614 105.333 26.5614H106.999C107.314 26.5614 107.603 26.383 107.744 26.1014L107.849 25.893C107.926 26.2747 108.263 26.5614 108.666 26.5614H119.5C119.721 26.5614 119.933 26.473 120.09 26.318L122 24.408L123.91 26.318C124.066 26.473 124.278 26.5614 124.5 26.5614H128.666C128.99 26.5614 129.283 26.3747 129.421 26.0814C129.558 25.7897 129.515 25.443 129.306 25.1947ZM111.133 24.8946H109.5V22.3946C109.5 22.008 109.235 21.6713 108.858 21.583C108.476 21.4946 108.093 21.6746 107.92 22.0213L106.485 24.8947H105.846L104.411 22.0213C104.238 21.6746 103.858 21.4946 103.473 21.583C103.098 21.6713 102.833 22.008 102.833 22.3946V24.8946H97.8328V24.0613C97.8328 23.6013 97.4594 23.2279 96.9994 23.2279H95.3328C95.0178 23.2279 94.7295 23.4063 94.5878 23.6879L93.9844 24.8946H91.6794L95.8461 16.5612H99.4994V22.3946C99.4994 22.8546 99.8728 23.228 100.333 23.228C100.793 23.228 101.166 22.8546 101.166 22.3946V16.5612H103.16L105.416 20.3229C105.716 20.8245 106.546 20.8245 106.845 20.3229L109.105 16.5612H111.133V24.8946H111.133ZM124.845 24.8963V24.8946L122.588 22.638C122.263 22.313 121.735 22.313 121.41 22.638L119.155 24.8946H112.8V16.5613H119.155L121.411 18.8179C121.736 19.1429 122.265 19.1429 122.59 18.8179L124.845 16.5613H126.888L123.861 20.1947C123.603 20.5047 123.603 20.953 123.861 21.263L126.888 24.8963H124.845Z" fill="white"/>
</g>
</g>
<defs>
<clipPath id="clip0">
<rect width="38" height="38" fill="white" transform="translate(0.5 2.72754)"/>
</clipPath>
<clipPath id="clip1">
<rect width="21" height="21" fill="white" transform="translate(53.5 10.7275)"/>
</clipPath>
<clipPath id="clip2">
<rect width="40" height="40" fill="white" transform="translate(89.5 0.727539)"/>
</clipPath>
</defs>
</svg>
