<svg xmlns="http://www.w3.org/2000/svg" xmlns:xlink="http://www.w3.org/1999/xlink" width="0" height="0" style="position:absolute">
	
		<symbol id="alert-attention" viewBox="0 0 286.054 286.054">
			<path d="M143.027 0C64.04 0 0 64.04 0 143.027c0 78.996 64.04 143.027 143.027 143.027 78.996 0 143.027-64.022 143.027-143.027C286.054 64.04 222.022 0 143.027 0zm0 259.236c-64.183 0-116.209-52.026-116.209-116.209S78.844 26.818 143.027 26.818s116.209 52.026 116.209 116.209-52.026 116.209-116.209 116.209zm.009-196.51c-10.244 0-17.995 5.346-17.995 13.981v79.201c0 8.644 7.75 13.972 17.995 13.972 9.994 0 17.995-5.551 17.995-13.972V76.707c-.001-8.43-8.001-13.981-17.995-13.981zm0 124.997c-9.842 0-17.852 8.01-17.852 17.86 0 9.833 8.01 17.843 17.852 17.843s17.843-8.01 17.843-17.843c-.001-9.851-8.001-17.86-17.843-17.86z" fill="#ffe03f"></path>
		</symbol>
	
		<symbol id="alert-info" viewBox="0 0 330 330">
			<g fill="#e5e5e5"><path d="M165 0C74.019 0 0 74.02 0 165.001 0 255.982 74.019 330 165 330s165-74.018 165-164.999S255.981 0 165 0zm0 300c-74.44 0-135-60.56-135-134.999S90.56 30 165 30s135 60.562 135 135.001C300 239.44 239.439 300 165 300z"></path><path d="M164.998 70c-11.026 0-19.996 8.976-19.996 20.009 0 11.023 8.97 19.991 19.996 19.991 11.026 0 19.996-8.968 19.996-19.991 0-11.033-8.97-20.009-19.996-20.009zM165 140c-8.284 0-15 6.716-15 15v90c0 8.284 6.716 15 15 15 8.284 0 15-6.716 15-15v-90c0-8.284-6.716-15-15-15z"></path></g>
		</symbol>
	
		<symbol id="alert-invalid" viewBox="0 0 286.054 286.054">
			<path d="M168.352 142.924l25.28-25.28c3.495-3.504 3.495-9.154 0-12.64l-12.64-12.649c-3.495-3.486-9.145-3.495-12.64 0l-25.289 25.289-25.271-25.271c-3.504-3.504-9.163-3.504-12.658-.018l-12.64 12.649c-3.495 3.486-3.486 9.154.018 12.649l25.271 25.271-25.227 25.226a8.93 8.93 0 0 0 0 12.64l12.64 12.649c3.495 3.486 9.145 3.495 12.64 0l25.226-25.226 25.405 25.414c3.504 3.504 9.163 3.504 12.658.009l12.64-12.64c3.495-3.495 3.486-9.154-.009-12.658l-25.404-25.414zM143.027.004C64.031.004 0 64.036 0 143.022c0 78.996 64.031 143.027 143.027 143.027s143.027-64.031 143.027-143.027C286.054 64.045 222.022.004 143.027.004zm0 259.228c-64.183 0-116.209-52.026-116.209-116.209s52.026-116.21 116.209-116.21 116.209 52.026 116.209 116.209-52.026 116.21-116.209 116.21z" fill="#e2574c"></path>
		</symbol>
	
		<symbol id="alert-valid" viewBox="0 0 286.054 286.054">
			<path d="M143.031 0C64.027 0 .004 64.04.004 143.027c0 78.996 64.031 143.027 143.027 143.027 78.987 0 143.018-64.031 143.018-143.027C286.049 64.049 222.018 0 143.031 0zm0 259.236c-64.183 0-116.209-52.026-116.209-116.209S78.857 26.818 143.031 26.818s116.2 52.026 116.2 116.209-52.025 116.209-116.2 116.209zm56.21-177.049c-6.079-3.629-13.847-1.475-17.342 4.827l-47.959 86.147-26.71-32.512c-4.836-5.569-11.263-8.456-17.333-4.827-6.079 3.638-8.591 12.39-4.657 18.004l37.169 45.241c2.78 3.611 5.953 5.775 9.27 6.392l.027.054.34.018c.751.116 11.979 2.19 16.815-6.463l55.048-98.876c3.493-6.313 1.411-14.367-4.668-18.005z" fill="#3db39e"></path>
		</symbol>
	
		<symbol id="arrow-next" viewBox="0 0 8 12">
			<path d="M.59 1.41L5.17 6 .59 10.59 2 12l6-6-6-6L.59 1.41z"></path>
		</symbol>
	
		<symbol id="arrow-prev" viewBox="0 0 8 12">
			<path d="M7.41 10.59L2.83 6l4.58-4.59L6 0 0 6l6 6 1.41-1.41z"></path>
		</symbol>
	
		<symbol id="cart" viewBox="-3 0 512 512">
			<path d="M494.93 97.148c-9.493-10.843-23.024-16.816-38.098-16.816H92.402l-3.668-27.5C84.781 23.207 64.156 0 41.777 0H15C6.715 0 0 6.715 0 15s6.715 15 15 15h26.777c4.813 0 15.004 10.176 17.22 26.797l42.937 322.039c1.89 14.195 9.183 27.484 20.535 37.422 8.418 7.37 18.367 12.273 28.789 14.324a54.795 54.795 0 0 0-6.66 26.25c0 30.422 24.75 55.168 55.168 55.168s55.168-24.746 55.168-55.168a54.78 54.78 0 0 0-6.102-25.164h78.602a54.78 54.78 0 0 0-6.102 25.164c0 30.422 24.75 55.168 55.168 55.168s55.168-24.746 55.168-55.168a54.78 54.78 0 0 0-6.102-25.164h39.301c8.281 0 15-6.719 15-15 0-8.285-6.719-15-15-15h-302.59c-14.656 0-28.672-12.273-30.609-26.8l-3.137-23.536h116.746c.004 0 .008.004.012.004s.008-.004.016-.004h96.367c.004 0 .008.004.015.004.004 0 .004-.004.008-.004H424.7c14.32 0 28.457-5.473 39.809-15.406 11.351-9.938 18.644-23.23 20.535-37.426l21.516-161.367c1.992-14.942-2.137-29.14-11.63-39.985zM224.934 456.832c0 13.879-11.29 25.168-25.168 25.168-13.875 0-25.168-11.29-25.168-25.168 0-13.875 11.293-25.164 25.168-25.164 13.879 0 25.168 11.289 25.168 25.164zm176.734 0c0 13.879-11.29 25.168-25.168 25.168s-25.168-11.29-25.168-25.168c0-13.875 11.29-25.164 25.168-25.164s25.168 11.289 25.168 25.164zm70.687-339.922c3.715 4.242 5.301 10.012 4.465 16.254l-9.02 67.668H365.739l6.032-90.5h85.062c6.3 0 11.813 2.336 15.523 6.578zm-213.02 204.422l-6.034-90.5h80.37l-6.034 90.5zm-8.034-120.5l-6.031-90.5h96.433l-6.031 90.5zm-36.098-90.5l6.031 90.5h-112.77l-12.066-90.5zm-102.738 120.5h110.77l6.035 90.5H124.53zm312.234 90.5h-66.996l6.035-90.5h100.063l-8.492 63.703c-1.938 14.527-15.957 26.797-30.61 26.797zm0 0"></path>
		</symbol>
	
		<symbol id="close" viewBox="0 0 60 60">
			<path d="M27.55 30.33L4.89 53A1.61 1.61 0 0 0 6 55.74a1.64 1.64 0 0 0 1.14-.47L30 32.44l22.83 22.83a1.64 1.64 0 0 0 1.14.47A1.61 1.61 0 0 0 55.11 53L32.45 30.33 55.13 7.65a1.61 1.61 0 1 0-2.28-2.28L30 28.22 7.15 5.37a1.61 1.61 0 1 0-2.28 2.28zm0 0"></path>
		</symbol>
	
		<symbol id="farba" viewBox="0 0 18 27">
			<path d="M2.815 6.23L6.14 2.966l3.32 3.282L6.123 9.51 2.815 6.23z" fill="#5DAA1A"></path><path d="M11.745.756l.409.891c-1.917.9-2.41 4.66-2.428 6.038l-.023 8.413-.978.011.023-8.47c-.014-.23.114-5.527 2.997-6.883z" fill="#5DAA1A"></path><path d="M17.438 10.404L.805 10.36.76 26.725l16.634.044.044-16.365z" fill="#E33226"></path><path d="M9.23 12.047l6.404.017-.017 6.488-6.387-6.505z" fill="#fff"></path>
		</symbol>
	
		<symbol id="fb" viewBox="0 0 11 21">
			<path d="M10.28 11.605l.57-3.592H7.282v-2.33c0-.983.497-1.942 2.095-1.942H11V.683S9.528.44 8.122.44c-2.938 0-4.857 1.721-4.857 4.835v2.738H0v3.592h3.265v8.685c.655.1 1.326.15 2.009.15.683 0 1.354-.05 2.01-.15v-8.684h2.995z"></path>
		</symbol>
	
		<symbol id="insta" viewBox="0 0 18 19">
			<path clip-rule="evenodd" d="M9.015 14.038c-2.591 0-4.699-2.077-4.699-4.63 0-2.554 2.108-4.631 4.699-4.631 2.59 0 4.698 2.077 4.698 4.63 0 2.554-2.108 4.63-4.698 4.63zm-2.988-4.63c0-1.614 1.34-2.926 2.988-2.926 1.647 0 2.987 1.312 2.987 2.925 0 1.614-1.34 2.926-2.987 2.926-1.648 0-2.988-1.312-2.988-2.926z"></path><path d="M13.797 5.689c-.61 0-1.106-.493-1.106-1.102 0-.608.495-1.1 1.106-1.1.61 0 1.105.492 1.105 1.1 0 .609-.495 1.102-1.105 1.102z"></path><path clip-rule="evenodd" d="M18 13.28c0 2.845-2.324 5.16-5.181 5.16H5.181C2.324 18.44 0 16.125 0 13.28V5.6C0 2.756 2.324.441 5.181.441h7.638C15.676.44 18 2.755 18 5.6v7.679zM12.819 2.148H5.18a3.464 3.464 0 0 0-3.466 3.453v7.678a3.464 3.464 0 0 0 3.466 3.453h7.638a3.464 3.464 0 0 0 3.466-3.453V5.601a3.464 3.464 0 0 0-3.466-3.453z"></path>
		</symbol>
	
		<symbol id="mail" viewBox="0 0 18 12">
			<path d="M17.077 0H.923A.926.926 0 0 0 0 .923v10.154c0 .508.415.923.923.923h16.154a.926.926 0 0 0 .923-.923V.923A.926.926 0 0 0 17.077 0zm-.347.692l-7.199 5.4a.9.9 0 0 1-.531.16.9.9 0 0 1-.531-.16l-7.2-5.4H16.73zM12.885 6.45l3.923 4.846.013.013H1.179c.004-.005.01-.008.013-.013l3.923-4.846a.346.346 0 0 0-.538-.436L.692 10.812V1.125l7.362 5.521c.277.206.613.297.946.298.332 0 .67-.092.946-.298l7.362-5.521v9.687l-3.885-4.8a.346.346 0 1 0-.538.437z"></path>
		</symbol>
	
		<symbol id="phone" viewBox="0 0 18 18">
			<path d="M17.528 13.886l-3.644-2.43a1.063 1.063 0 0 0-1.424.232l-1.06 1.364a.454.454 0 0 1-.582.123l-.202-.111c-.67-.365-1.502-.82-3.18-2.498C5.76 8.889 5.304 8.055 4.94 7.386l-.11-.2a.454.454 0 0 1 .12-.585l1.363-1.06c.436-.342.537-.962.231-1.424L4.113.473a1.058 1.058 0 0 0-1.425-.32l-1.524.914c-.478.282-.83.738-.98 1.272-.548 2-.136 5.449 4.946 10.531C9.173 16.913 12.182 18 14.25 18c.477.002.95-.06 1.41-.184.535-.15.991-.502 1.272-.98l.916-1.523a1.058 1.058 0 0 0-.32-1.427zm-.197 1.12l-.913 1.523c-.202.345-.53.6-.915.709-1.846.506-5.07.087-9.948-4.792C.675 7.567.256 4.344.763 2.498c.11-.386.364-.714.71-.916L2.996.668a.459.459 0 0 1 .62.14l1.319 1.98L6.043 4.45c.132.2.089.47-.1.618l-1.364 1.06A1.05 1.05 0 0 0 4.3 7.477l.108.197c.383.703.86 1.578 2.6 3.318 1.74 1.74 2.614 2.216 3.317 2.6l.197.108a1.05 1.05 0 0 0 1.348-.278l1.06-1.364a.462.462 0 0 1 .618-.1l3.643 2.43a.459.459 0 0 1 .14.618z"></path>
		</symbol>
	
		<symbol id="pin" viewBox="0 0 14 18">
			<path d="M7 0A6.657 6.657 0 0 0 .353 6.65c0 1.206.54 2.505.564 2.56.174.414.52 1.059.768 1.437l4.56 6.908c.186.283.462.445.757.445s.57-.162.757-.445l4.56-6.908c.25-.378.594-1.023.768-1.438.023-.054.564-1.352.564-2.56A6.657 6.657 0 0 0 7 0zm5.365 8.906a9.808 9.808 0 0 1-.7 1.31l-4.56 6.908c-.09.137-.118.137-.208 0l-4.56-6.908a9.827 9.827 0 0 1-.7-1.31c-.007-.017-.503-1.212-.503-2.257A5.874 5.874 0 0 1 7 .782a5.874 5.874 0 0 1 5.867 5.867c0 1.047-.498 2.245-.503 2.257z"></path><path d="M7 3.13a3.524 3.524 0 0 0-3.52 3.52c0 1.94 1.58 3.52 3.52 3.52 1.942 0 3.52-1.58 3.52-3.52S8.943 3.13 7 3.13zm0 6.258A2.741 2.741 0 0 1 4.264 6.65 2.741 2.741 0 0 1 7 3.912 2.741 2.741 0 0 1 9.739 6.65 2.741 2.741 0 0 1 7 9.388z"></path>
		</symbol>
	
		<symbol id="plane" viewBox="0 0 17 15">
			<path d="M1.262 7.233l3.456 1.281 1.338 4.281a.407.407 0 0 0 .643.193l1.925-1.562a.574.574 0 0 1 .7-.018l3.475 2.513a.407.407 0 0 0 .637-.242l2.556-12.19a.405.405 0 0 0-.544-.46L1.262 6.473c-.35.137-.35.629 0 .76zm5.377.08l6.756-4.144c.119-.074.244.088.144.187L7.964 8.514c-.193.18-.325.423-.356.691l-.187 1.4c-.025.187-.288.205-.344.025l-.731-2.557a.673.673 0 0 1 .293-.76z"></path>
		</symbol>
	
		<symbol id="s-facebook" viewBox="0 0 20 21">
			<g clip-path="url(#a)"><path d="M14.984.728H5c-2.746 0-5 2.254-5 5.015v9.984c0 2.747 2.254 5 5 5h9.984A5.026 5.026 0 0 0 20 15.712V5.743A5.027 5.027 0 0 0 14.984.728zm-2.302 10h-1.888v6.19H8.413v-6.19h-1.27v-2.54h1.111v-1.08c0-1.015.508-2.619 2.65-2.619h1.953v2.112h-1.38c-.223 0-.525.142-.525.634v.953h1.953l-.223 2.54z"></path></g><defs><clipPath id="a"><path fill="#fff" transform="translate(0 .728)" d="M0 0h20v20H0z"></path></clipPath></defs>
		</symbol>
	
		<symbol id="s-insta" viewBox="0 0 20 21">
			<g clip-path="url(#a)"><path d="M14.586.728H5.414A5.42 5.42 0 0 0 0 6.14v9.173a5.42 5.42 0 0 0 5.414 5.413h9.172A5.42 5.42 0 0 0 20 15.314V6.14A5.42 5.42 0 0 0 14.586.728zM10 16.196a5.475 5.475 0 0 1-5.469-5.469A5.475 5.475 0 0 1 10 5.26a5.475 5.475 0 0 1 5.469 5.468A5.475 5.475 0 0 1 10 16.197zm5.6-9.647a1.618 1.618 0 0 1-1.617-1.616c0-.891.725-1.616 1.616-1.616.891 0 1.616.725 1.616 1.616 0 .89-.725 1.616-1.616 1.616z"></path><path d="M10 6.432a4.301 4.301 0 0 0-4.297 4.296A4.301 4.301 0 0 0 10 15.024a4.3 4.3 0 0 0 4.296-4.296A4.3 4.3 0 0 0 10 6.432zM15.6 4.49a.444.444 0 1 0 0 .887.444.444 0 0 0 0-.888z"></path></g><defs><clipPath id="a"><path fill="#fff" transform="translate(0 .728)" d="M0 0h20v20H0z"></path></clipPath></defs>
		</symbol>
	
		<symbol id="s-linkedin" viewBox="0 0 20 21">
			<g clip-path="url(#a)"><path d="M14.972.735h-9.96A5.023 5.023 0 0 0 0 5.747v9.977c0 2.743 2.252 4.995 5.012 4.995h9.976A5.023 5.023 0 0 0 20 15.709v-9.96c-.016-2.76-2.268-5.013-5.028-5.013zm-8.31 16.178H3.806V8.666H6.66v8.247zM5.217 7.397c-.809 0-1.46-.65-1.46-1.46 0-.808.651-1.459 1.46-1.459.809 0 1.46.65 1.46 1.46-.017.808-.667 1.459-1.46 1.459zm10.976 9.516h-2.396v-3.997c0-.967-.126-2.204-1.443-2.204-1.348 0-1.57 1.046-1.57 2.14v4.061H8.406V8.666h2.22v1.11h.064c.349-.635 1.158-1.126 2.427-1.126 2.616 0 3.076 1.506 3.076 3.743v4.52z"></path></g><defs><clipPath id="a"><path fill="#fff" transform="translate(0 .728)" d="M0 0h20v20H0z"></path></clipPath></defs>
		</symbol>
	
		<symbol id="searcher" viewBox="0 0 21 21">
			<path d="M14.999 13.897l-.044.053.049.048 4.935 4.935.053-.053-.053.053a.711.711 0 1 1-1.006 1.006l-4.935-4.935-.049-.049-.052.044a8.397 8.397 0 0 1-5.386 1.948c-4.651 0-8.436-3.784-8.436-8.435C.075 3.86 3.86.075 8.511.075c4.652 0 8.436 3.785 8.436 8.437A8.396 8.396 0 0 1 15 13.896zm-6.488-12.4a7.022 7.022 0 0 0-7.014 7.014 7.021 7.021 0 0 0 7.014 7.014 7.021 7.021 0 0 0 7.014-7.014A7.022 7.022 0 0 0 8.51 1.497z" stroke="#fff" stroke-width=".15"></path>
		</symbol>
	
		<symbol id="user" viewBox="0 0 17 20">
			<path d="M8.165 9.571c1.315 0 2.453-.471 3.384-1.402.93-.93 1.402-2.068 1.402-3.383s-.472-2.454-1.402-3.384C10.617.472 9.479 0 8.165 0 6.85 0 5.71.472 4.78 1.402c-.93.93-1.402 2.069-1.402 3.384S3.85 7.239 4.78 8.169c.93.93 2.07 1.402 3.384 1.402zm-2.56-7.346c.713-.714 1.55-1.06 2.56-1.06 1.009 0 1.846.346 2.56 1.06.714.714 1.061 1.552 1.061 2.56 0 1.01-.347 1.847-1.06 2.561-.715.714-1.552 1.061-2.561 1.061s-1.846-.347-2.56-1.061c-.715-.714-1.062-1.551-1.062-2.56 0-1.01.347-1.847 1.061-2.56zM16.537 15.28c-.026-.388-.08-.81-.16-1.256a9.903 9.903 0 0 0-.31-1.263 6.244 6.244 0 0 0-.518-1.177 4.438 4.438 0 0 0-.783-1.02 3.45 3.45 0 0 0-1.124-.706 3.885 3.885 0 0 0-1.435-.26c-.203 0-.399.084-.778.33a104.9 104.9 0 0 1-.81.523c-.26.165-.613.32-1.048.461a4.163 4.163 0 0 1-1.283.208c-.426 0-.857-.07-1.282-.207-.435-.141-.788-.296-1.048-.462-.301-.193-.574-.369-.81-.523-.38-.247-.576-.33-.778-.33-.517 0-1 .088-1.435.26-.437.173-.815.41-1.125.706a4.44 4.44 0 0 0-.782 1.02c-.215.38-.39.776-.519 1.178a9.911 9.911 0 0 0-.308 1.262c-.08.445-.134.868-.161 1.256-.027.38-.04.774-.04 1.173 0 1.037.33 1.877.98 2.496.642.611 1.492.921 2.525.921h9.568c1.033 0 1.882-.31 2.524-.92.65-.62.98-1.46.98-2.497 0-.4-.013-.795-.04-1.174zm-1.742 2.825c-.425.404-.988.6-1.723.6H3.505c-.735 0-1.298-.196-1.722-.6-.416-.396-.619-.936-.619-1.652 0-.372.013-.74.037-1.093.024-.346.073-.726.146-1.13.071-.4.163-.774.271-1.114.104-.325.246-.647.423-.957.168-.295.361-.549.575-.753.2-.192.45-.348.747-.465.275-.109.583-.168.917-.177.041.021.114.063.231.14.24.155.516.334.82.528.345.22.788.418 1.317.588a5.326 5.326 0 0 0 1.64.264c.548 0 1.1-.089 1.64-.264.53-.17.973-.368 1.317-.588.313-.2.58-.372.82-.529a3.13 3.13 0 0 1 .231-.14c.335.01.643.07.918.178.296.117.547.274.747.465.214.204.407.457.575.753.177.31.319.632.423.957.108.34.2.714.271 1.113.073.405.122.786.146 1.131.025.352.037.72.037 1.093 0 .716-.202 1.256-.618 1.652z"></path>
		</symbol>
	
		<symbol id="vk" viewBox="0 0 21 13">
			<path d="M20.805 11.208c0-.083-.084-.083-.084-.165-.334-.657-1.086-1.48-2.088-2.383-.502-.411-.752-.74-.92-.905-.25-.328-.25-.575-.167-.904.084-.246.418-.657 1.003-1.397.334-.41.501-.657.752-.904 1.253-1.644 1.838-2.712 1.671-3.205l-.084-.083c-.083-.082-.167-.164-.334-.164-.167-.082-.417-.082-.668 0H16.126l-.084.082c-.083.082-.083.082-.083.165-.334.904-.752 1.643-1.17 2.465-.25.411-.501.822-.752 1.151-.25.329-.418.575-.585.74-.167.164-.334.246-.418.41-.083.083-.25.165-.25.083-.084 0-.167 0-.167-.082l-.251-.247c-.084-.082-.084-.246-.167-.41v-.412-.493-.493-.904-.74-.575-.493c0-.083-.084-.247-.084-.33l-.25-.246c-.084-.082-.251-.082-.335-.164A7.611 7.611 0 0 0 10.027.44C8.69.44 7.77.523 7.437.687c-.168.082-.335.164-.418.329-.168.164-.168.246-.084.246.418.083.752.247.92.493l.083.165c.083.082.083.246.167.493.083.247.083.493.083.822V4.55c0 .411-.083.658-.083.904 0 .247-.084.411-.167.493-.084.165-.084.247-.167.247 0 0 0 .082-.084.082s-.167.082-.334.082c-.084 0-.25-.082-.334-.164a.999.999 0 0 1-.418-.411c-.167-.164-.334-.411-.502-.74-.167-.329-.417-.657-.584-1.15l-.168-.33c-.083-.164-.25-.492-.417-.903-.167-.411-.335-.74-.502-1.151a1.137 1.137 0 0 0-.25-.329h-.084s-.083-.082-.167-.082-.167-.082-.25-.082H.667c-.334 0-.5.082-.584.164L0 1.262v.165c0 .082 0 .164.084.328.417.987.919 1.973 1.42 2.96.501.904 1.003 1.725 1.337 2.3.418.576.752 1.151 1.17 1.645.417.493.668.822.752.986l.334.329.25.246c.168.165.418.411.752.658.335.246.752.493 1.17.74.418.246.92.41 1.42.575.585.164 1.087.246 1.588.164h1.253c.251 0 .418-.082.585-.246l.084-.082c0-.083.083-.083.083-.165v-.329c0-.328 0-.575.084-.822.084-.246.084-.41.167-.575.084-.164.167-.247.25-.329l.168-.164h.083c.167-.082.418 0 .585.164.251.165.502.411.669.658.167.246.418.493.752.822.334.329.585.575.752.657l.25.165c.167.082.335.164.585.246.25.082.418.082.585.082l2.841-.082c.25 0 .501-.082.668-.164.168-.082.251-.165.251-.329v-.329c-.167-.164-.167-.246-.167-.328z"></path>
		</symbol>
	
</svg>
