<svg width="18" height="27" viewBox="0 0 18 27" fill="none" xmlns="http://www.w3.org/2000/svg">
<path d="M2.81533 6.22976L6.13943 2.96595L9.45992 6.24763L6.12165 9.5114L2.81533 6.22976Z" fill="#5DAA1A"/>
<path d="M11.7448 0.756057C12.1536 1.64725 12.1536 1.64725 12.1536 1.64725C10.2366 2.54655 9.74419 6.30661 9.72626 7.68478C9.70341 16.0976 9.70341 16.0976 9.70341 16.0976C8.72482 16.1093 8.72482 16.1093 8.72482 16.1093C8.74783 7.63907 8.74783 7.63907 8.74783 7.63907C8.73427 7.40934 8.86211 2.11217 11.7448 0.756057Z" fill="#5DAA1A"/>
<path d="M17.4381 10.4041L0.804688 10.3594L0.760233 26.7248L17.3936 26.7695L17.4381 10.4041Z" fill="#E33226"/>
<path d="M9.23047 12.0469L15.6342 12.0641L15.6166 18.5521L9.23047 12.0469Z" fill="white"/>
</svg>
