<svg width="18" height="19" viewBox="0 0 18 19" fill="none" xmlns="http://www.w3.org/2000/svg">
<path fill-rule="evenodd" clip-rule="evenodd" d="M9.01455 14.0378C6.42373 14.0378 4.31604 11.9606 4.31604 9.40737C4.31604 6.85417 6.42402 4.77694 9.01455 4.77694C11.6051 4.77694 13.7131 6.85417 13.7131 9.40737C13.7131 11.9606 11.6054 14.0378 9.01455 14.0378ZM6.02747 9.40741C6.02747 7.79413 7.36734 6.48175 9.01456 6.48175C10.6618 6.48175 12.0017 7.79413 12.0017 9.40741C12.0017 11.0207 10.6618 12.3331 9.01456 12.3331C7.36734 12.3331 6.02747 11.0207 6.02747 9.40741Z" />
<path d="M13.7967 5.68872C13.1861 5.68872 12.6912 5.19573 12.6912 4.58749C12.6912 3.97925 13.1861 3.48626 13.7967 3.48626C14.4073 3.48626 14.9022 3.97925 14.9022 4.58749C14.9022 5.19573 14.4073 5.68872 13.7967 5.68872Z" />
<path fill-rule="evenodd" clip-rule="evenodd" d="M18 13.2795C18 16.1254 15.6756 18.4404 12.819 18.4404H5.18105C2.32408 18.4404 0 16.1251 0 13.2795V5.60139C0 2.7555 2.32437 0.44043 5.18105 0.44043H12.819C15.6759 0.44043 18 2.75579 18 5.60139V13.2795ZM12.8189 2.14837H5.18102C3.2697 2.14837 1.71462 3.69742 1.71462 5.60132V13.2794C1.71462 15.1833 3.2697 16.7324 5.18102 16.7324H12.8189C14.7302 16.7324 16.2853 15.1833 16.2853 13.2794V5.60132C16.2853 3.69742 14.7302 2.14837 12.8189 2.14837Z" />
</svg>
