<svg width="14" height="18" viewBox="0 0 14 18" fill="none" xmlns="http://www.w3.org/2000/svg">
<path d="M7.00084 0C3.33435 0 0.351562 2.98279 0.351562 6.64928C0.351562 7.85632 0.892892 9.1545 0.915578 9.20926C1.09042 9.62425 1.4354 10.2688 1.68416 10.6467L6.24322 17.5545C6.42979 17.8377 6.70593 18 7.00084 18C7.29576 18 7.5719 17.8377 7.75847 17.5549L12.3179 10.6467C12.5671 10.2688 12.9117 9.62425 13.0865 9.20926C13.1092 9.15489 13.6501 7.85671 13.6501 6.64928C13.6501 2.98279 10.6673 0 7.00084 0ZM12.3652 8.90574C12.2092 9.27771 11.8881 9.87731 11.6647 10.216L7.10528 17.1243C7.01532 17.2608 6.98676 17.2608 6.8968 17.1243L2.33735 10.216C2.11401 9.87731 1.79289 9.27731 1.63683 8.90534C1.63018 8.88931 1.13383 7.69439 1.13383 6.64928C1.13383 3.41421 3.76577 0.782269 7.00084 0.782269C10.2359 0.782269 12.8679 3.41421 12.8679 6.64928C12.8679 7.69596 12.3703 8.894 12.3652 8.90574Z"/>
<path d="M7.00068 3.12988C5.05948 3.12988 3.48047 4.70928 3.48047 6.65009C3.48047 8.5909 5.05948 10.1703 7.00068 10.1703C8.94188 10.1703 10.5209 8.5909 10.5209 6.65009C10.5209 4.70928 8.94188 3.12988 7.00068 3.12988ZM7.00068 9.38803C5.49129 9.38803 4.26274 8.15987 4.26274 6.65009C4.26274 5.14031 5.49129 3.91215 7.00068 3.91215C8.51007 3.91215 9.73862 5.14031 9.73862 6.65009C9.73862 8.15987 8.51007 9.38803 7.00068 9.38803Z"/>
</svg>
