<svg width="17" height="15" viewBox="0 0 17 15" fill="none" xmlns="http://www.w3.org/2000/svg">
<path d="M1.26247 7.23254L4.71827 8.51431L6.0556 12.7952C6.14309 13.069 6.48054 13.1685 6.69926 12.9881L8.62401 11.4263C8.82399 11.2645 9.11145 11.2521 9.32392 11.4076L12.7985 13.9214C13.0359 14.0956 13.3734 13.965 13.4359 13.6788L15.9918 1.48942C16.0543 1.17209 15.7481 0.910758 15.4481 1.02898L1.26247 6.47342C0.912511 6.61031 0.912511 7.10187 1.26247 7.23254ZM6.63946 7.31342L13.3948 3.16942C13.5136 3.09476 13.6386 3.25654 13.5386 3.35609L7.96429 8.51431C7.77056 8.69476 7.63933 8.93742 7.60808 9.20498L7.42061 10.605C7.39561 10.7916 7.13314 10.8103 7.0769 10.6299L6.34575 8.07254C6.25826 7.78631 6.38324 7.4752 6.63946 7.31342Z" stroke-width="0.8"/>
</svg>
