<svg width="20" height="21" viewBox="0 0 20 21" fill="none" xmlns="http://www.w3.org/2000/svg">
<g clip-path="url(#clip0)">
<path d="M14.9841 0.727539H5C2.25397 0.727539 0 2.98151 0 5.74341V15.7275C0 18.4736 2.25397 20.7275 5 20.7275H14.9841C17.746 20.7275 20 18.4736 20 15.7117V5.74341C20 2.98151 17.746 0.727539 14.9841 0.727539ZM12.6825 10.7275H10.7937V16.918H8.4127V10.7275H7.14286V8.18786H8.25397V7.10849C8.25397 6.09262 8.7619 4.48944 10.9048 4.48944H12.8571V6.60055H11.4762C11.254 6.60055 10.9524 6.74341 10.9524 7.23548V8.18786H12.9048L12.6825 10.7275Z"/>
</g>
<defs>
<clipPath id="clip0">
<rect width="20" height="20" fill="white" transform="translate(0 0.727539)"/>
</clipPath>
</defs>
</svg>
