<svg width="20" height="21" viewBox="0 0 20 21" fill="none" xmlns="http://www.w3.org/2000/svg">
<g clip-path="url(#clip0)">
<path d="M14.5862 0.727539H5.41381C2.42858 0.727539 0 3.15612 0 6.14135V15.3138C0 18.2989 2.42858 20.7275 5.41381 20.7275H14.5863C17.5714 20.7275 20 18.2989 20 15.3138V6.14135C20 3.15612 17.5714 0.727539 14.5862 0.727539V0.727539ZM9.99998 16.1961C6.98455 16.1961 4.53139 13.743 4.53139 10.7275C4.53139 7.71208 6.98455 5.25893 9.99998 5.25893C13.0154 5.25893 15.4686 7.71208 15.4686 10.7275C15.4686 13.743 13.0154 16.1961 9.99998 16.1961ZM15.5993 6.5486C14.7082 6.5486 13.9834 5.82381 13.9834 4.9327C13.9834 4.04159 14.7082 3.31665 15.5993 3.31665C16.4904 3.31665 17.2154 4.04159 17.2154 4.9327C17.2154 5.82381 16.4904 6.5486 15.5993 6.5486Z" />
<path d="M9.99923 6.43164C7.63046 6.43164 5.70312 8.35882 5.70312 10.7277C5.70312 13.0965 7.63046 15.0238 9.99923 15.0238C12.3682 15.0238 14.2953 13.0965 14.2953 10.7277C14.2953 8.35882 12.3682 6.43164 9.99923 6.43164Z" />
<path d="M15.5997 4.48926C15.3552 4.48926 15.1562 4.68823 15.1562 4.93268C15.1562 5.17712 15.3552 5.3761 15.5997 5.3761C15.8443 5.3761 16.0432 5.17728 16.0432 4.93268C16.0432 4.68808 15.8443 4.48926 15.5997 4.48926Z" />
</g>
<defs>
<clipPath id="clip0">
<rect width="20" height="20" fill="white" transform="translate(0 0.727539)"/>
</clipPath>
</defs>
</svg>
