<svg width="20" height="21" viewBox="0 0 20 21" fill="none" xmlns="http://www.w3.org/2000/svg">
<g clip-path="url(#clip0)">
<path d="M14.9722 0.735352H5.0119C2.25218 0.735352 0 2.98753 0 5.74725V15.7235C0 18.4673 2.25218 20.7195 5.0119 20.7195H14.9881C17.7478 20.7195 20 18.4673 20 15.7076V5.74725C19.9841 2.98753 17.732 0.735352 14.9722 0.735352ZM6.66138 16.913H3.8065V8.66557H6.66138V16.913ZM5.21808 7.39673C4.4092 7.39673 3.75892 6.74645 3.75892 5.93757C3.75892 5.12869 4.4092 4.47841 5.21808 4.47841C6.02696 4.47841 6.67724 5.12869 6.67724 5.93757C6.66138 6.74645 6.0111 7.39673 5.21808 7.39673ZM16.1935 16.913H16.1776H13.7986V12.9162C13.7986 11.9487 13.6717 10.7116 12.3553 10.7116C11.0071 10.7116 10.7851 11.7583 10.7851 12.8527V16.913H8.40603V8.66557H10.6265V9.7758H10.6899C11.0389 9.14138 11.8477 8.64971 13.1166 8.64971C15.7335 8.64971 16.1935 10.1564 16.1935 12.3928V16.913Z" />
</g>
<defs>
<clipPath id="clip0">
<rect width="20" height="20" fill="white" transform="translate(0 0.727539)"/>
</clipPath>
</defs>
</svg>
