<svg width="21" height="21" viewBox="0 0 21 21" fill="none" xmlns="http://www.w3.org/2000/svg">
<path d="M14.999 13.897L14.9552 13.9496L15.0036 13.998L19.9388 18.9331L19.9918 18.8801L19.9388 18.9331C20.2167 19.2109 20.2167 19.6611 19.9389 19.9389C19.8 20.0778 19.618 20.1472 19.4359 20.1472C19.2538 20.1472 19.0719 20.0778 18.9331 19.9389L18.933 19.9389L13.9977 15.0037L13.9494 14.9553L13.8968 14.999C12.4345 16.215 10.5569 16.9474 8.51126 16.9474C3.85954 16.9474 0.075 13.163 0.075 8.5115C0.075 3.85966 3.85955 0.075 8.51126 0.075C13.1629 0.075 16.9474 3.85966 16.9474 8.5115C16.9474 10.5573 16.215 12.4348 14.999 13.897ZM8.51126 1.49746C4.64375 1.49746 1.49745 4.64387 1.49745 8.5115C1.49745 12.3788 4.64376 15.5249 8.51126 15.5249C12.3787 15.5249 15.5249 12.3788 15.5249 8.5115C15.5249 4.64388 12.3787 1.49746 8.51126 1.49746Z" stroke="white" stroke-width="0.15"/>
</svg>
