<svg width="28" height="22" viewBox="0 0 28 22" fill="none" xmlns="http://www.w3.org/2000/svg">
<path d="M27.0145 2.90912C26.0852 3.39522 24.6856 3.61984 24.2216 3.68457C24.2177 3.66214 24.2139 3.64067 24.2101 3.6192C25.7875 2.64348 26.2704 0.806427 26.2704 0.806427C25.2934 1.36494 24.4324 1.6748 23.7839 1.84656C23.4192 1.94429 23.1215 1.99716 22.9075 2.02664C21.9244 1.01855 20.5516 0.393066 19.0321 0.393066C16.0425 0.393066 13.6184 2.81651 13.6184 5.80713C13.6184 5.91479 13.6213 6.02182 13.6283 6.12788C13.6428 6.38712 13.6758 6.64186 13.7267 6.88956C12.2796 6.86809 7.05623 6.42429 2.7278 1.39635C2.7278 1.39635 0.31749 5.60173 4.3697 8.47443C4.3697 8.47443 2.7278 8.42316 1.85622 7.8076C1.85622 7.8076 1.59987 11.8598 6.267 13.1416C6.267 13.1416 4.62605 13.5524 3.80478 13.1931C3.80478 13.1931 4.62573 16.6808 8.7289 16.9377C8.7289 16.9377 5.78603 19.632 0.980469 19.2442C3.34399 20.7407 6.14619 21.6068 9.15059 21.6068C17.5982 21.6068 24.4465 14.7588 24.4465 6.31117C24.4465 6.20575 24.4456 6.10033 24.4433 5.9949C24.4456 5.93242 24.4465 5.87025 24.4465 5.80713C24.4465 5.76323 24.4456 5.71933 24.4449 5.67543C26.0067 4.63466 27.0145 2.90912 27.0145 2.90912Z" />
</svg>
