<svg width="17" height="20" viewBox="0 0 17 20" fill="none" xmlns="http://www.w3.org/2000/svg">
<path d="M8.16477 9.57142C9.4797 9.57142 10.6182 9.09981 11.5487 8.16932C12.4789 7.23898 12.9506 6.10065 12.9506 4.78556C12.9506 3.47092 12.479 2.33244 11.5485 1.4018C10.618 0.471613 9.47955 0 8.16477 0C6.84968 0 5.71135 0.471613 4.78101 1.40195C3.85067 2.33229 3.37891 3.47077 3.37891 4.78556C3.37891 6.10065 3.85067 7.23913 4.78101 8.16947C5.71165 9.09966 6.85013 9.57142 8.16477 9.57142ZM5.60448 2.22527C6.31834 1.5114 7.15575 1.1644 8.16477 1.1644C9.17363 1.1644 10.0112 1.5114 10.7252 2.22527C11.4391 2.93928 11.7862 3.77684 11.7862 4.78556C11.7862 5.79458 11.4391 6.63199 10.7252 7.346C10.0112 8.06002 9.17363 8.40702 8.16477 8.40702C7.15605 8.40702 6.31864 8.05986 5.60448 7.346C4.89046 6.63214 4.54331 5.79458 4.54331 4.78556C4.54331 3.77684 4.89046 2.93928 5.60448 2.22527Z"/>
<path d="M16.5374 15.2792C16.5105 14.892 16.4563 14.4697 16.3764 14.0237C16.2957 13.5743 16.1919 13.1496 16.0676 12.7613C15.939 12.3601 15.7645 11.9638 15.5485 11.584C15.3246 11.1899 15.0614 10.8467 14.7661 10.5643C14.4573 10.2688 14.0793 10.0313 13.6421 9.85798C13.2064 9.68561 12.7235 9.5983 12.2071 9.5983C12.0042 9.5983 11.8081 9.68152 11.4292 9.92817C11.1961 10.0802 10.9233 10.2561 10.6189 10.4506C10.3587 10.6164 10.006 10.7718 9.57051 10.9125C9.14559 11.05 8.71415 11.1197 8.28817 11.1197C7.86249 11.1197 7.43105 11.05 7.00582 10.9125C6.57074 10.7719 6.21798 10.6166 5.95815 10.4507C5.65662 10.258 5.38375 10.0822 5.14711 9.92802C4.76858 9.68137 4.57242 9.59814 4.36958 9.59814C3.85294 9.59814 3.37027 9.68561 2.93473 9.85813C2.49783 10.0311 2.1196 10.2687 1.8105 10.5644C1.51519 10.847 1.25203 11.19 1.02827 11.584C0.81255 11.9638 0.637913 12.3599 0.50936 12.7615C0.385204 13.1497 0.281361 13.5743 0.200712 14.0237C0.12067 14.4691 0.0665503 14.8915 0.039718 15.2796C0.0133404 15.6591 0 16.054 0 16.453C0 17.4902 0.32972 18.3299 0.979912 18.9491C1.62207 19.5602 2.47161 19.8701 3.50503 19.8701H13.0725C14.1056 19.8701 14.9552 19.5602 15.5975 18.9491C16.2478 18.3303 16.5775 17.4903 16.5775 16.4528C16.5774 16.0525 16.5639 15.6576 16.5374 15.2792ZM14.7946 18.1055C14.3703 18.5094 13.807 18.7057 13.0724 18.7057H3.50503C2.77025 18.7057 2.20692 18.5094 1.78276 18.1057C1.36663 17.7095 1.1644 17.1688 1.1644 16.453C1.1644 16.0807 1.17668 15.713 1.20124 15.3601C1.22519 15.0139 1.27416 14.6335 1.34677 14.2294C1.41848 13.8302 1.50974 13.4556 1.61828 13.1165C1.72243 12.7913 1.86447 12.4694 2.04062 12.1592C2.20874 11.8636 2.40218 11.61 2.61562 11.4056C2.81528 11.2145 3.06692 11.058 3.36344 10.9407C3.63768 10.8321 3.94587 10.7727 4.28044 10.7638C4.32122 10.7854 4.39384 10.8268 4.51147 10.9035C4.75084 11.0595 5.02675 11.2375 5.33176 11.4323C5.67557 11.6515 6.11854 11.8495 6.64775 12.0203C7.1888 12.1953 7.7406 12.2841 8.28832 12.2841C8.83603 12.2841 9.38799 12.1953 9.92873 12.0205C10.4584 11.8493 10.9012 11.6515 11.2455 11.432C11.5576 11.2325 11.8258 11.0597 12.0652 10.9035C12.1828 10.827 12.2554 10.7854 12.2962 10.7638C12.6309 10.7727 12.9391 10.8321 13.2135 10.9407C13.5099 11.058 13.7615 11.2146 13.9612 11.4056C14.1746 11.6098 14.368 11.8634 14.5362 12.1593C14.7125 12.4694 14.8547 12.7915 14.9587 13.1164C15.0674 13.4559 15.1588 13.8304 15.2303 14.2292C15.3028 14.6341 15.3519 15.0146 15.3759 15.3603V15.3606C15.4006 15.7121 15.413 16.0796 15.4131 16.453C15.413 17.169 15.2108 17.7095 14.7946 18.1055Z"/>
</svg>
