<svg width="21" height="13" viewBox="0 0 21 13" fill="none" xmlns="http://www.w3.org/2000/svg">
<path d="M20.8049 11.2076C20.8049 11.1254 20.7214 11.1254 20.7214 11.0432C20.3872 10.3856 19.6352 9.56372 18.6325 8.65961C18.1312 8.24865 17.8805 7.91988 17.7134 7.7555C17.4628 7.42673 17.4628 7.18016 17.5463 6.8514C17.6299 6.60482 17.9641 6.19385 18.549 5.45412C18.8832 5.04316 19.0503 4.7966 19.301 4.55002C20.5543 2.90618 21.1391 1.83768 20.972 1.34453L20.8885 1.26235C20.8049 1.18016 20.7214 1.09797 20.5543 1.09797C20.3872 1.01578 20.1365 1.01578 19.8858 1.09797H16.7108C16.6272 1.09797 16.6272 1.09797 16.4601 1.09797C16.3766 1.09797 16.293 1.09797 16.293 1.09797H16.2095H16.1259L16.0424 1.18015C15.9588 1.26234 15.9588 1.26234 15.9588 1.34453C15.6246 2.24864 15.2068 2.98837 14.789 3.81029C14.5384 4.22125 14.2877 4.63221 14.0371 4.96098C13.7864 5.28975 13.6193 5.53632 13.4522 5.7007C13.2851 5.86509 13.118 5.94728 13.0344 6.11166C12.9509 6.19385 12.7838 6.27605 12.7838 6.19386C12.7002 6.19386 12.6166 6.19385 12.6166 6.11166C12.5331 6.02947 12.4495 5.94728 12.366 5.86508C12.2824 5.78289 12.2824 5.61851 12.1989 5.45412C12.1989 5.28974 12.1989 5.12536 12.1989 5.04317C12.1989 4.96097 12.1989 4.71441 12.1989 4.55002C12.1989 4.30345 12.1989 4.13906 12.1989 4.05687C12.1989 3.81029 12.1989 3.48153 12.1989 3.15276C12.1989 2.824 12.1989 2.57741 12.1989 2.41303C12.1989 2.24865 12.1989 2.00207 12.1989 1.83769C12.1989 1.59111 12.1989 1.42672 12.1989 1.34453C12.1989 1.26234 12.1153 1.09796 12.1153 1.01577C12.0318 0.933578 11.9482 0.851384 11.8647 0.769192C11.7811 0.687 11.614 0.687003 11.5304 0.604811C11.1127 0.522619 10.6114 0.44043 10.0265 0.44043C8.68962 0.44043 7.77052 0.522624 7.43631 0.687008C7.2692 0.7692 7.10209 0.851386 7.01854 1.01577C6.85143 1.18015 6.85143 1.26235 6.93498 1.26235C7.35275 1.34454 7.68697 1.50892 7.85408 1.75549L7.93764 1.91989C8.02119 2.00208 8.02118 2.16645 8.10473 2.41303C8.18828 2.6596 8.18829 2.90618 8.18829 3.23495C8.18829 3.7281 8.18829 4.22125 8.18829 4.55002C8.18829 4.96098 8.10473 5.20755 8.10473 5.45412C8.10473 5.7007 8.02119 5.86509 7.93764 5.94728C7.85408 6.11166 7.85407 6.19386 7.77052 6.19386C7.77052 6.19386 7.77051 6.27604 7.68696 6.27604C7.60341 6.27604 7.51986 6.35824 7.35275 6.35824C7.2692 6.35824 7.10209 6.27605 7.01854 6.19386C6.85143 6.11167 6.68432 5.94728 6.60077 5.7829C6.43366 5.61852 6.26655 5.37193 6.09944 5.04317C5.93233 4.7144 5.68166 4.38564 5.51455 3.89248L5.34746 3.56372C5.26391 3.39934 5.0968 3.07057 4.92969 2.65961C4.76258 2.24865 4.59547 1.91989 4.42836 1.50893C4.34481 1.34454 4.26126 1.26234 4.17771 1.18015H4.09415C4.09415 1.18015 4.01059 1.09797 3.92703 1.09797C3.84348 1.09797 3.75993 1.01577 3.67638 1.01577H0.668434C0.334218 1.01577 0.167113 1.09796 0.083559 1.18015L0 1.26235C0 1.26235 0 1.34454 0 1.42673C0 1.50892 5.10613e-06 1.59111 0.083559 1.75549C0.501329 2.74179 1.00265 3.7281 1.50397 4.7144C2.0053 5.61851 2.50663 6.44043 2.84084 7.01578C3.25861 7.59112 3.59282 8.16646 4.01059 8.65961C4.42836 9.15276 4.67902 9.48153 4.76257 9.64591C4.92968 9.8103 5.01323 9.89248 5.09678 9.97468L5.34746 10.2213C5.51457 10.3856 5.76522 10.6322 6.09944 10.8788C6.43366 11.1254 6.85142 11.3719 7.26919 11.6185C7.68696 11.8651 8.18829 12.0295 8.68962 12.1939C9.2745 12.3582 9.77581 12.4404 10.2771 12.3582H11.5304C11.7811 12.3582 11.9482 12.2761 12.1153 12.1117L12.1989 12.0295C12.1989 11.9473 12.2824 11.9473 12.2824 11.8651C12.2824 11.7829 12.2824 11.7007 12.2824 11.5363C12.2824 11.2076 12.2824 10.961 12.366 10.7144C12.4495 10.4678 12.4495 10.3035 12.5331 10.1391C12.6167 9.97469 12.7002 9.89249 12.7838 9.81029C12.8673 9.7281 12.9509 9.64591 12.9509 9.64591H13.0344C13.2015 9.56372 13.4522 9.64591 13.6193 9.81029C13.87 9.97468 14.1206 10.2213 14.2877 10.4678C14.4548 10.7144 14.7055 10.961 15.0397 11.2897C15.3739 11.6185 15.6246 11.8651 15.7917 11.9473L16.0424 12.1117C16.2095 12.1939 16.3766 12.2761 16.6272 12.3582C16.8779 12.4404 17.045 12.4404 17.2121 12.4404L20.053 12.3582C20.3036 12.3582 20.5543 12.2761 20.7214 12.1939C20.8885 12.1117 20.972 12.0295 20.972 11.8651C20.972 11.7829 20.972 11.6185 20.972 11.5363C20.8049 11.3719 20.8049 11.2897 20.8049 11.2076Z" />
</svg>
